<?xml version="1.0" encoding="iso-8859-1"?>

<!DOCTYPE svg PUBLIC "-//W3C//DTD SVG 1.1//EN" "http://www.w3.org/Graphics/SVG/1.1/DTD/svg11.dtd">
<!-- Uploaded to: SVG Repo, www.svgrepo.com, Generator: SVG Repo Mixer Tools -->
<svg fill="#000000" version="1.1" xmlns="http://www.w3.org/2000/svg" xmlns:xlink="http://www.w3.org/1999/xlink"  width="800px"
	 height="800px" viewBox="0 0 32 32" xml:space="preserve">
<g id="photo-add">
	<path d="M28,17.076V2.989C28,1.338,26.661,0,25.011,0H2.989C1.339,0,0,1.338,0,2.989v22.021C0,26.662,1.339,28,2.989,28h14.087
		c1.385,2.389,3.963,4,6.923,4C28.417,32,32,28.417,32,23.997C32,21.038,30.389,18.46,28,17.076z M4.686,18.783
		C4.765,18.984,4.959,19,5.175,19h12.58c-0.482,0.602-0.879,1.274-1.173,2H3.962C3.431,21,3,20.569,3,20.038V3.962
		C3,3.431,3.431,3,3.962,3h20.076C24.569,3,25,3.431,25,3.962v12.104c-0.328-0.041-0.661-0.069-1.001-0.069
		c-0.673,0-1.323,0.092-1.947,0.249l-4.435-6.618c-0.308-0.49-0.81-0.461-1.115,0.029l-2.859,4.575
		c-0.308,0.489-0.894,0.556-1.303,0.147l-0.853-0.853c-0.409-0.41-1.079-0.41-1.488,0l-5.181,4.797
		C4.659,18.471,4.606,18.582,4.686,18.783z M23.999,29c-2.759,0-5.003-2.244-5.003-5.003c0-2.758,2.244-5.001,5.003-5.001
		c2.758,0,5.001,2.243,5.001,5.001C29,26.756,26.757,29,23.999,29z"/>
	<path d="M26,23h-1v-1c0-0.553-0.447-1-1-1s-1,0.447-1,1v1h-1c-0.553,0-1,0.447-1,1s0.447,1,1,1h1v1c0,0.553,0.447,1,1,1
		s1-0.447,1-1v-1h1c0.553,0,1-0.447,1-1S26.553,23,26,23z"/>
	<circle cx="8" cy="8" r="3"/>
</g>
<g id="Layer_1">
</g>
</svg>